<svg width="48" height="28" viewBox="0 0 48 28" fill="none" xmlns="http://www.w3.org/2000/svg">
<path fill-rule="evenodd" clip-rule="evenodd" d="M14.9242 0.0832338C16.5619 -0.0070883 18.1976 0.00013747 19.8353 0.00013747C19.8466 0.00013747 28.1336 0.00013747 28.1336 0.00013747C29.8033 0.00013747 31.4391 -0.0070883 33.0758 0.0832338C34.5638 0.164524 36.0132 0.337942 37.456 0.725424C40.4932 1.54013 43.1454 3.2418 45.0626 5.6543C46.9685 8.05145 48 10.986 48 13.9992C48 17.0159 46.9685 19.9487 45.0626 22.3458C43.1454 24.7574 40.4932 26.46 37.456 27.2747C36.0132 27.6622 34.5638 27.8347 33.0758 27.9169C31.4391 28.0072 29.8033 27.9991 28.1656 27.9991C28.1544 27.9991 19.8654 28 19.8654 28C18.1976 27.9991 16.5619 28.0072 14.9242 27.9169C13.4372 27.8347 11.9878 27.6622 10.5449 27.2747C7.50777 26.46 4.85553 24.7574 2.93835 22.3458C1.03247 19.9487 0 17.0159 0 14.0001C0 10.986 1.03247 8.05145 2.93835 5.6543C4.85553 3.2418 7.50777 1.54013 10.5449 0.725424C11.9878 0.337942 13.4372 0.164524 14.9242 0.0832338Z" fill="#1A6FEE"/>
</svg>
